<?xml version="1.0" encoding="UTF-8"?>
<svg width="161px" height="114px" viewBox="0 0 161 114" version="1.1" xmlns="http://www.w3.org/2000/svg" xmlns:xlink="http://www.w3.org/1999/xlink">
    <!-- Generator: Sketch 49.3 (51167) - http://www.bohemiancoding.com/sketch -->
    <title>Allblacks-Full</title>
    <desc>Created with Sketch.</desc>
    <defs>
        <polygon id="path-1" points="0 0.9225 17.3308 0.9225 17.3308 17.3505 0 17.3505"></polygon>
    </defs>
    <g id="Page-1" stroke="none" stroke-width="1" fill="none" fill-rule="evenodd">
        <g id="Artboard" transform="translate(-107.000000, -324.000000)">
            <g id="Allblacks-Full" transform="translate(107.000000, 324.000000)">
                <path d="M75.221,19.9947 C73.272,20.2367 71.35,20.4977 69.481,20.7837 L70.154,42.5167 L94.235,55.1157 C94.932,54.7767 95.633,54.4327 96.338,54.0847 L76.211,40.3917 L72.894,41.5347 L75.221,19.9947 Z" id="Fill-1" fill="#FEFEFE"></path>
                <path d="M63.5736,21.8121 C61.6226,22.2011 59.7716,22.6301 58.0376,23.1041 L57.7816,47.8201 L82.7706,60.5791 C83.7006,60.1401 84.6566,59.6901 85.6366,59.2271 L63.9626,44.9681 L60.5106,46.5141 L63.5736,21.8121 Z" id="Fill-3" fill="#FEFEFE"></path>
                <path d="M68.9886,20.8614 C67.2946,21.1244 65.6436,21.4074 64.0526,21.7174 L63.9626,44.9684 L88.7416,57.7574 C89.5556,57.3714 90.3816,56.9774 91.2146,56.5764 L70.1546,42.5164 L66.6936,43.7354 L68.9886,20.8614 Z" id="Fill-5" fill="#FEFEFE"></path>
                <path d="M85.5413,18.8644 C84.0203,19.0154 82.4943,19.1724 80.9733,19.3344 L82.0573,38.5274 L78.7363,39.5974 L80.4633,19.3884 C78.8703,19.5614 77.2833,19.7424 75.7153,19.9344 L76.2103,40.3924 L99.6153,52.4414 C100.2873,52.1004 100.9583,51.7564 101.6313,51.4094 L82.1653,38.5234 L104.2113,50.0584 C104.8703,49.7094 105.5243,49.3564 106.1783,49.0014 L87.7923,36.6284 L84.4383,37.7724 L85.5413,18.8644 Z" id="Fill-7" fill="#FEFEFE"></path>
                <path d="M90.8216,18.3546 C89.2546,18.5036 87.6726,18.6556 86.0826,18.8116 L87.7926,36.6286 L108.5086,47.7166 C109.0996,47.3856 109.6876,47.0526 110.2736,46.7166 L92.7676,34.8966 L89.8836,35.9186 L90.8216,18.3546 Z" id="Fill-9" fill="#FEFEFE"></path>
                <path d="M29.7903,36.0948 C26.8393,37.9148 24.4223,39.5428 22.7283,40.7248 L21.9963,70.2058 C21.9963,70.2058 16.3293,74.2738 14.1963,76.0698 C12.0653,77.8658 8.1603,81.5368 8.1603,81.5368 L8.1633,88.8188 C8.1633,88.8188 12.8843,82.2928 16.1883,79.1948 C19.4123,76.1748 23.5693,72.7658 23.5693,72.7658 L22.8063,71.6678 L49.1063,83.5518 C49.5263,83.1428 50.5513,82.1578 52.0263,80.8158 L29.2243,65.8798 L25.6673,68.7288 L29.7903,36.0948 Z" id="Fill-11" fill="#FEFEFE"></path>
                <path d="M36.9642,31.9322 C34.6152,33.2082 32.4352,34.4782 30.4652,35.6812 L29.2242,65.8792 L55.8892,77.4132 C56.8472,76.5982 57.8742,75.7422 58.9562,74.8682 L36.5962,60.3552 L33.0312,62.9512 L36.9642,31.9322 Z" id="Fill-13" fill="#FEFEFE"></path>
                <path d="M96.1546,17.84 C94.5696,17.996 92.9526,18.151 91.3176,18.307 L92.7676,34.896 L112.5236,45.407 C113.1546,45.033 113.7836,44.654 114.4056,44.273 L97.8886,33.161 L94.7886,34.261 L96.1546,17.84 Z" id="Fill-15" fill="#FEFEFE"></path>
                <path d="M57.5174,23.2482 C57.3874,23.2862 57.2504,23.3202 57.1224,23.3572 C55.1894,23.9212 53.2694,24.5722 51.3744,25.2802 L50.7524,51.4922 L76.3914,63.6302 C77.3674,63.1522 78.3944,62.6552 79.4784,62.1392 L57.7824,47.8202 L54.0874,49.6982 L57.5174,23.2482 Z" id="Fill-17" fill="#FEFEFE"></path>
                <path d="M50.9188,25.4537 C48.6628,26.3117 46.4508,27.2527 44.3098,28.2427 L43.6668,55.6687 L40.0578,57.9787 L43.8168,28.4707 C41.6058,29.5047 39.4758,30.5837 37.4608,31.6677 L36.5968,60.3547 L62.5338,72.0817 C63.4768,71.3747 64.4418,70.6757 65.4208,69.9917 L43.6688,55.7427 L69.1958,67.5047 C70.2108,66.8787 71.2258,66.2867 72.2338,65.7457 C72.2938,65.7127 72.3618,65.6797 72.4218,65.6467 L50.7528,51.4927 L47.1008,53.5837 L50.9188,25.4537 Z" id="Fill-19" fill="#FEFEFE"></path>
                <path d="M127.3631,11.1466 C126.0311,11.6966 124.6301,12.2336 123.1681,12.7516 L123.2061,22.2466 L135.4631,24.8936 C136.1491,23.8626 136.7961,22.8276 137.4081,21.7976 L128.1041,19.1776 L125.7101,20.7276 L127.3631,11.1466 Z" id="Fill-21" fill="#FEFEFE"></path>
                <path d="M122.7064,12.9181 C121.2794,13.4141 119.7864,13.8871 118.2434,14.3351 L118.1484,24.8711 L132.3134,29.2321 C132.8934,28.5011 133.4524,27.7621 133.9884,27.0171 L123.2064,22.2461 L120.7314,23.5441 L122.7064,12.9181 Z" id="Fill-23" fill="#FEFEFE"></path>
                <path d="M136.2083,6.879 C135.0683,7.513 133.8373,8.163 132.5193,8.811 L132.4483,15.871 L130.0643,17.748 L132.0913,9.02 C130.7443,9.675 129.3093,10.328 127.7853,10.967 L128.1043,19.177 L138.5573,19.793 C139.1383,18.743 139.6823,17.705 140.1883,16.685 L132.5903,15.795 L141.1303,14.728 C141.5873,13.746 142.0113,12.789 142.4003,11.865 L136.5983,12.233 L134.8273,13.852 L136.2083,6.879 Z" id="Fill-25" fill="#FEFEFE"></path>
                <path d="M117.8358,14.4537 C117.1508,14.6477 116.4618,14.8387 115.7538,15.0207 C114.9368,15.2317 114.0568,15.4297 113.1238,15.6177 L113.0838,27.1967 L113.0648,27.2047 L129.0128,33.0527 C129.5668,32.4657 130.1068,31.8707 130.6298,31.2667 L118.1478,24.8707 L115.6708,26.0387 L117.8358,14.4537 Z" id="Fill-27" fill="#FEFEFE"></path>
                <path d="M146.388,0.0001 C146.388,0.0001 145.698,0.6181 144.365,1.6221 L143.821,4.1951 L142.732,5.5631 L143.325,2.3881 C142.627,2.8901 141.812,3.4521 140.885,4.0581 L140.307,8.4171 L139.109,9.7521 L140.252,4.4671 C139.181,5.1521 137.966,5.8861 136.628,6.6431 L136.598,12.2331 L143.234,9.8161 C143.585,8.9201 143.904,8.0651 144.191,7.2611 L140.765,7.9341 L144.757,5.6241 C145.904,2.1891 146.388,0.0001 146.388,0.0001" id="Fill-29" fill="#FEFEFE"></path>
                <path d="M101.6204,17.274 C100.0244,17.45 98.3734,17.62 96.6904,17.786 L97.8884,33.161 L116.8974,42.705 C117.5374,42.294 118.1704,41.88 118.7934,41.463 L103.2204,31.165 L100.1584,32.337 L101.6204,17.274 Z" id="Fill-31" fill="#FEFEFE"></path>
                <polygon id="Fill-33" fill="#FEFEFE" points="107.9989 29.3102 108.0049 29.3082 107.9729 29.2952"></polygon>
                <path d="M107.5291,16.5426 C105.8051,16.7846 103.9841,17.0086 102.0831,17.2216 L103.2201,31.1646 L120.9311,39.9966 C121.3691,39.6876 121.8051,39.3766 122.2341,39.0646 C122.4651,38.8946 122.6931,38.7206 122.9201,38.5476 L107.9991,29.3106 L105.3461,30.3446 L107.5291,16.5426 Z" id="Fill-35" fill="#FEFEFE"></path>
                <polygon id="Fill-37" fill="#FEFEFE" points="113.0609 27.2062 113.0639 27.2052 113.0459 27.1982"></polygon>
                <path d="M112.6331,15.7106 C111.2171,15.9836 109.6861,16.2356 108.0551,16.4696 L108.0821,29.2786 L108.0051,29.3076 L125.2401,36.6666 C125.8231,36.1616 126.3951,35.6466 126.9511,35.1196 L113.0611,27.2066 L110.4941,28.3186 L112.6331,15.7106 Z" id="Fill-39" fill="#FEFEFE"></path>
                <path d="M159.826,93.0973 C159.826,94.6223 158.73,95.6543 157.421,95.6543 C156.085,95.6543 155.017,94.6223 155.017,93.0973 C155.017,91.5703 156.085,90.5393 157.421,90.5393 C158.73,90.5393 159.826,91.5703 159.826,93.0973 Z M157.421,96.4973 C159.243,96.4973 160.955,95.2593 160.955,93.0973 C160.955,90.9343 159.243,89.6963 157.421,89.6963 C155.591,89.6963 153.886,90.9343 153.886,93.0973 C153.886,95.2593 155.591,96.4973 157.421,96.4973 Z M156.874,92.7393 L156.874,91.9033 L157.394,91.9033 C157.663,91.9033 158.067,91.9213 158.067,92.2793 C158.067,92.6563 157.897,92.7393 157.583,92.7393 L156.874,92.7393 Z M156.874,93.4013 L157.188,93.4013 L158.023,94.9353 L158.865,94.9353 L157.933,93.3383 C158.57,93.3123 158.964,93.0603 158.964,92.3703 C158.964,91.5003 158.381,91.2383 157.413,91.2383 L156.03,91.2383 L156.03,94.9353 L156.874,94.9353 L156.874,93.4013 Z" id="Fill-41" fill="#FEFEFE"></path>
                <path d="M117.7323,102.7071 C117.7323,98.9111 116.4013,96.4271 110.1413,96.4271 C104.0463,96.4271 102.3883,98.4041 102.3883,105.1461 C102.4093,111.3811 103.6713,113.8651 110.1643,113.8651 C116.5423,113.8651 117.7323,110.9211 117.7323,107.2851 L111.5183,107.2851 L111.5183,109.0801 C111.5183,109.9081 111.1003,110.4611 110.1643,110.4611 C109.2303,110.4611 108.8123,109.9081 108.8123,109.0801 L108.8123,101.2111 C108.8123,100.3841 109.2303,99.8301 110.1643,99.8301 C111.1003,99.8301 111.5183,100.3841 111.5183,101.2111 L111.5183,102.7071 L117.7323,102.7071 Z" id="Fill-43" fill="#FEFEFE"></path>
                <path d="M59.5599,100.337 L59.5599,103.374 L60.8189,103.374 C61.6139,103.374 62.1039,102.684 62.1039,101.856 C62.1039,101.027 61.6139,100.337 60.8189,100.337 L59.5599,100.337 Z M59.5599,106.64 L59.5599,109.954 L60.8189,109.954 C61.7549,109.954 62.2449,109.08 62.2449,108.068 C62.2449,107.055 61.7069,106.64 60.9369,106.64 L59.5599,106.64 Z M53.4399,113.36 L53.4399,99.091 C53.4019,98.637 53.1889,98.365 52.9109,98.207 C52.7659,98.122 52.6049,98.071 52.4529,98.04 C52.3509,98.018 52.2479,98.004 52.1529,97.993 L52.1539,96.976 L53.4399,96.976 L62.1739,96.933 C66.8929,96.933 68.3169,98.313 68.3169,100.912 C68.3169,103.605 66.7059,104.571 64.3009,104.984 C66.8679,105.33 68.6429,106.318 68.6429,109.127 C68.6429,111.197 67.4519,113.36 63.3189,113.36 L53.4399,113.36 Z" id="Fill-45" fill="#FEFEFE"></path>
                <path d="M71.1795,113.3605 L71.1795,100.2435 L71.1675,99.2205 C71.1615,98.6915 70.9355,98.3845 70.6345,98.2135 C70.4875,98.1275 70.3265,98.0785 70.1765,98.0455 C70.0725,98.0245 69.9705,98.0095 69.8765,97.9985 L69.8765,96.9825 L71.1795,96.9825 L77.4855,96.9325 L77.4855,109.4485 L82.9085,109.4485 L82.9085,113.3605 L71.1795,113.3605 Z" id="Fill-47" fill="#FEFEFE"></path>
                <path d="M19.2718,113.3605 L19.2718,100.2435 L19.2588,99.2205 C19.2528,98.6915 19.0278,98.3845 18.7268,98.2135 C18.5798,98.1275 18.4198,98.0785 18.2678,98.0455 C18.1648,98.0245 18.0628,98.0095 17.9678,97.9985 L17.9688,96.9825 L19.2718,96.9825 L25.5788,96.9325 L25.5788,109.4485 L30.9998,109.4485 L30.9998,113.3605 L19.2718,113.3605 Z" id="Fill-49" fill="#FEFEFE"></path>
                <path d="M32.8543,113.3605 L32.8543,100.2435 L32.8403,99.2205 C32.8353,98.6915 32.6093,98.3845 32.3083,98.2135 C32.1623,98.1275 32.0003,98.0785 31.8503,98.0455 C31.7473,98.0245 31.6453,98.0095 31.5503,97.9985 L31.5503,96.9825 L32.8543,96.9825 L39.1603,96.9325 L39.1603,109.4485 L44.5823,109.4485 L44.5823,113.3605 L32.8543,113.3605 Z" id="Fill-51" fill="#FEFEFE"></path>
                <path d="M153.7928,101.3815 C153.7928,98.6455 152.4398,96.2835 146.3628,96.2835 C141.5188,96.2835 138.9548,98.0135 138.9548,102.0355 C138.9548,108.1405 147.8348,105.7315 147.8348,109.4255 C147.8348,110.2455 147.2158,110.8775 146.3628,110.8775 C145.8148,110.8775 145.5088,110.6425 145.3168,110.2685 C145.1268,109.8705 145.0808,109.3335 145.0568,108.6785 L138.7658,108.6785 C138.4798,113.4725 142.7068,114.0095 146.8138,114.0095 C150.8728,114.0095 154.1958,112.6285 154.1958,108.2105 C154.1958,102.1525 145.2708,104.0005 145.2708,100.8915 C145.2708,100.2575 145.7218,99.6505 146.4088,99.6505 C147.0748,99.6505 147.4538,99.8145 147.6448,100.1175 C147.8348,100.4215 147.8818,100.8425 147.8818,101.3815 L153.7928,101.3815 Z" id="Fill-53" fill="#FEFEFE"></path>
                <path d="M84.3084,113.3605 L88.1114,99.1335 C88.2144,98.6265 88.0974,98.2975 87.8094,98.1335 C87.6624,98.0485 87.5994,98.0285 87.4474,97.9955 C87.3434,97.9735 87.2424,97.9585 87.1464,97.9485 L87.1464,96.9325 L88.7004,96.9325 L97.3424,96.9325 L101.6394,113.3605 L95.1924,113.3605 L94.7254,110.7835 L91.2684,110.7835 L90.8014,113.3605 L84.3084,113.3605 Z M93.0674,100.3255 L91.7824,107.6075 L94.2814,107.6075 L93.0674,100.3255 Z" id="Fill-55" fill="#FEFEFE"></path>
                <g id="Group-59" transform="translate(0.000000, 96.010000)">
                    <mask id="mask-2" fill="white">
                        <use xlink:href="#path-1"></use>
                    </mask>
                    <g id="Clip-58"></g>
                    <path d="M-0.0002,17.3505 L3.8038,3.1235 C3.9048,2.6165 3.7888,2.2875 3.4998,2.1235 C3.3538,2.0385 3.2898,2.0185 3.1378,1.9855 C3.0348,1.9635 2.9348,1.9485 2.8378,1.9385 L2.8388,0.9225 L4.3898,0.9225 L13.0328,0.9225 L17.3308,17.3505 L10.8838,17.3505 L10.4168,14.7735 L6.9588,14.7735 L6.4938,17.3505 L-0.0002,17.3505 Z M8.7588,4.3155 L7.4738,11.5975 L9.9738,11.5975 L8.7588,4.3155 Z" id="Fill-57" fill="#FEFEFE" mask="url(#mask-2)"></path>
                </g>
                <path d="M118.7777,96.8541 L126.3917,96.8291 L126.3917,101.4051 L130.8817,96.8481 L138.2537,96.8481 L131.8797,103.1051 L137.9787,113.2641 L131.3007,113.2641 L127.7627,107.1661 L126.3987,108.5151 L126.3987,113.2581 L120.0937,113.2581 L120.0937,100.1251 L120.0697,99.1171 C120.0627,98.5881 119.8377,98.2821 119.5367,98.1101 C119.3897,98.0261 119.2297,97.9751 119.0777,97.9431 C118.9737,97.9221 118.8727,97.9081 118.7777,97.8961 L118.7777,96.8541 Z" id="Fill-60" fill="#FEFEFE"></path>
            </g>
        </g>
    </g>
</svg>