<svg xmlns="http://www.w3.org/2000/svg" version="1.1" xmlns:xlink="http://www.w3.org/1999/xlink" xmlns:svgjs="http://svgjs.dev/svgjs" width="1500" height="1543" viewBox="0 0 1500 1543"><g transform="matrix(1,0,0,1,0.5874999999999773,0.6246963562753081)"><svg viewBox="0 0 240 247" data-background-color="#000000" preserveAspectRatio="xMidYMid meet" height="1543" width="1500" xmlns="http://www.w3.org/2000/svg" xmlns:xlink="http://www.w3.org/1999/xlink"><g id="tight-bounds" transform="matrix(1,0,0,1,-0.09399999999999409,-0.09999999999999432)"><svg viewBox="0 0 240.18776 247.2" height="247.2" width="240.18776"><g><svg></svg></g><g><svg viewBox="0 0 240.18776 247.2" height="247.2" width="240.18776"><g transform="matrix(1,0,0,1,0,47.215199999999996)"><svg viewBox="0 0 240.18776 152.7696" height="152.7696" width="240.18776"><g><svg viewBox="0 0 240.18776 152.7696" height="152.7696" width="240.18776"><g><svg viewBox="0 0 240.18776 152.7696" height="152.7696" width="240.18776"><g><svg viewBox="0 0 240.18776 152.7696" height="152.7696" width="240.18776"><g id="textblocktransform"><svg viewBox="0 0 240.18776 152.7696" height="152.7696" width="240.18776" id="textblock"><g><svg viewBox="0 0 240.18776 152.7696" height="152.7696" width="240.18776"><g transform="matrix(1,0,0,1,0,0)"><svg width="240.18776" viewBox="1.25 -35.5 56.6 36" height="152.7696" data-palette-color="#0000000"><path d="M15.75 0L13.15 0Q12.65 0 12.33-0.33 12-0.65 12-1.15L12-1.15 12-30.55 2.4-30.55Q1.9-30.55 1.58-30.88 1.25-31.2 1.25-31.7L1.25-31.7 1.25-33.8Q1.25-34.35 1.58-34.68 1.9-35 2.4-35L2.4-35 26.5-35Q27.05-35 27.38-34.68 27.7-34.35 27.7-33.8L27.7-33.8 27.7-31.7Q27.7-31.2 27.38-30.88 27.05-30.55 26.5-30.55L26.5-30.55 16.95-30.55 16.95-1.15Q16.95-0.65 16.63-0.33 16.3 0 15.75 0L15.75 0ZM44.55 0.5L44.55 0.5Q40.2 0.5 37.25-0.85 34.3-2.2 32.72-4.33 31.15-6.45 31.05-8.8L31.05-8.8Q31.05-9.2 31.37-9.53 31.7-9.85 32.15-9.85L32.15-9.85 34.7-9.85Q35.3-9.85 35.6-9.55 35.9-9.25 36-8.85L36-8.85Q36.3-7.65 37.25-6.48 38.2-5.3 39.97-4.53 41.75-3.75 44.55-3.75L44.55-3.75Q48.85-3.75 50.87-5.28 52.9-6.8 52.9-9.35L52.9-9.35Q52.9-11.1 51.82-12.18 50.75-13.25 48.55-14.1 46.35-14.95 42.85-15.95L42.85-15.95Q39.2-17 36.8-18.25 34.4-19.5 33.22-21.35 32.05-23.2 32.05-26.05L32.05-26.05Q32.05-28.75 33.5-30.88 34.95-33 37.7-34.25 40.45-35.5 44.3-35.5L44.3-35.5Q47.4-35.5 49.72-34.68 52.05-33.85 53.6-32.48 55.15-31.1 55.95-29.53 56.75-27.95 56.8-26.45L56.8-26.45Q56.8-26.1 56.55-25.78 56.3-25.45 55.75-25.45L55.75-25.45 53.1-25.45Q52.75-25.45 52.37-25.65 52-25.85 51.8-26.4L51.8-26.4Q51.5-28.45 49.5-29.85 47.5-31.25 44.3-31.25L44.3-31.25Q41.05-31.25 39.02-30 37-28.75 37-26.1L37-26.1Q37-24.4 37.95-23.28 38.9-22.15 40.95-21.3 43-20.45 46.3-19.5L46.3-19.5Q50.3-18.4 52.85-17.18 55.4-15.95 56.62-14.13 57.85-12.3 57.85-9.45L57.85-9.45Q57.85-6.3 56.2-4.08 54.55-1.85 51.57-0.68 48.6 0.5 44.55 0.5Z" opacity="1" transform="matrix(1,0,0,1,0,0)" fill="#000000" class="wordmark-text-0" data-fill-palette-color="primary" id="text-0"></path></svg></g></svg></g></svg></g></svg></g><g></g></svg></g></svg></g></svg></g><path d="M0 41.215L0 1 240.188 1 240.188 41.215 226.411 41.215 226.411 14.777 13.777 14.777 13.777 41.215 0 41.215M0 205.985L0 246.2 240.188 246.2 240.188 205.985 226.411 205.985 226.411 232.423 13.777 232.423 13.777 205.985 0 205.985" fill="#000000" stroke="transparent" data-fill-palette-color="tertiary"></path></svg></g><defs></defs></svg><rect width="240.18776" height="247.2" fill="none" stroke="none" visibility="hidden"></rect></g></svg></g></svg>