<svg width="322" height="436" viewBox="0 0 322 436" fill="none" xmlns="http://www.w3.org/2000/svg">
<path d="M125.089 26.4991C122.323 30.7069 121.413 35.1709 122.357 39.8911C122.677 41.4963 122.721 43.006 122.49 44.42C122.021 47.2206 121.532 49.994 121.022 52.74C120.927 53.2592 121.141 53.4777 121.664 53.3958C121.882 53.3616 122.096 53.3924 122.306 53.488C122.455 53.5567 122.583 53.6629 122.678 53.7959C122.772 53.9289 122.831 54.0842 122.847 54.2462C122.928 55.1547 122.823 55.9983 122.531 56.7771C122.055 59.0449 122.357 61.3777 123.438 63.7753C123.58 64.0896 123.638 64.4174 123.611 64.759C123.298 69.0761 124.773 72.5496 128.035 75.1795C128.293 75.3913 128.443 75.6577 128.483 75.9788C128.64 77.058 128.952 78.0793 129.421 79.0424C129.425 79.0491 129.43 79.0552 129.435 79.0606C129.439 79.0643 129.443 79.0677 129.447 79.0707C129.458 79.0781 129.469 79.083 129.481 79.085C129.483 79.0854 129.486 79.0857 129.488 79.0859L129.492 79.0861C129.495 79.0861 129.497 79.086 129.5 79.0858C129.505 79.0852 129.511 79.0841 129.516 79.0822C129.527 79.0784 129.536 79.0718 129.543 79.0629L129.859 78.694C130.124 78.3867 130.396 78.3798 130.675 78.6736C131.368 79.4113 131.66 80.2139 131.551 81.0815C131.517 81.3752 131.599 81.6279 131.796 81.8397C132.421 82.5296 132.849 83.3425 133.08 84.2783C133.114 84.4013 133.189 84.4867 133.305 84.5345C133.393 84.5686 133.481 84.5755 133.57 84.555L133.665 84.5234L137.362 83.2947C137.848 83.7867 138.299 84.3022 138.747 84.8134C140.078 86.3352 141.377 87.8198 143.498 88.5408C143.729 88.6228 143.956 88.6159 144.181 88.5203C144.378 88.4315 144.565 88.3222 144.741 88.1924L150.429 89.6884C150.64 89.8455 150.861 89.8592 151.092 89.7294L151.713 89.3605L152.886 89.7704C153.749 90.3442 154.343 91.1195 154.669 92.0963C154.778 92.4105 154.999 92.554 155.332 92.5266L164.01 93C164.162 92.9965 165.248 91.6809 165.23 91.1024L167.183 87.5228L167.248 87.4444C167.438 87.1917 167.486 86.8946 167.391 86.553C167.357 86.4369 167.34 86.3139 167.34 86.1841C167.34 85.6308 167.557 85.5284 167.992 85.8767C168.42 86.2183 168.865 86.2798 169.327 86.0612C169.667 85.9109 169.81 85.6513 169.755 85.2825L177.013 88.6433C177.114 88.7797 177.246 88.8906 177.398 88.9671C177.551 89.0436 177.719 89.0835 177.889 89.0839C178.148 89.0839 178.372 88.9985 178.562 88.8277C178.902 88.4998 178.987 88.1173 178.817 87.6801L188.188 82.9668L191.755 82.4339L197.362 71.6753L199.719 61.7261L198.999 52.9142C201.432 49.164 201.646 45.4753 199.642 41.8481C198.399 39.6034 198.241 37.0783 198.084 34.5818C198.024 33.6368 197.965 32.696 197.848 31.776C197.569 29.6037 196.886 27.3051 195.799 24.8802C195.656 24.5659 195.439 24.3166 195.146 24.1322C193.753 23.2783 192.574 22.2366 191.609 21.007C191.059 20.3103 190.434 19.6613 189.734 19.0602C189.081 18.5001 188.412 17.8511 187.726 17.1134C186.435 15.7336 184.607 14.5177 182.242 13.4657C181.575 13.1676 180.911 12.9726 180.254 12.7797C179.376 12.5218 178.511 12.2675 177.665 11.7751C177.475 11.6658 177.366 11.4984 177.339 11.273C177.325 11.1637 177.319 11.0544 177.319 10.9451C177.312 10.8153 177.274 10.689 177.207 10.5774C177.141 10.4657 177.049 10.372 176.938 10.3044C176.828 10.2367 176.703 10.1972 176.573 10.1892C176.444 10.1813 176.315 10.2051 176.197 10.2586C173.317 11.5462 172.5 10.4533 171.486 9.09545C171.039 8.49749 170.554 7.84816 169.837 7.32813C169.735 7.25299 169.626 7.23933 169.511 7.28714C169.416 7.3213 169.351 7.37936 169.317 7.46133C169.222 7.68675 169.246 7.89851 169.388 8.09661L171.05 10.4123C171.213 10.6377 171.176 10.8221 170.938 10.9656L170.693 11.1193C170.632 11.1558 170.565 11.1798 170.495 11.1898C170.425 11.1998 170.354 11.1956 170.285 11.1775C170.217 11.1593 170.153 11.1276 170.097 11.0842C170.041 11.0408 169.994 10.9865 169.959 10.9246C169.252 9.67455 168.417 8.72163 167.452 8.06587C167.088 7.81535 166.691 7.72254 166.26 7.78745L166.249 7.78922C165.284 7.92583 164.445 7.76531 163.731 7.30764C159.468 4.60426 155.559 3.29819 152.002 3.38942C151.595 3.39985 151.193 3.42854 150.796 3.4755C148.832 3.70775 146.923 4.47623 145.068 5.78093C143.947 6.57029 142.789 7.25019 141.592 7.82063C141.235 7.99065 140.875 8.15096 140.511 8.30153C138.099 9.29201 135.782 10.624 133.56 12.2976L133.445 12.4904L125.089 26.4991Z" fill="#3A312A"/>
</svg>
