<svg width="322" height="436" viewBox="0 0 322 436" fill="none" xmlns="http://www.w3.org/2000/svg">
<path d="M118.283 113C124.37 113.527 128.703 114.8 131.283 114.82C148.323 114.947 165.363 114.983 182.403 114.93C189.263 114.903 196.043 114.647 202.743 114.16C203.937 113.86 204.767 114.38 205.233 115.72C205.467 116.38 205.233 116.747 204.533 116.82C197.633 117.54 190.55 118.917 183.283 118.95C168.83 119.03 153.913 119.033 138.533 118.96C131.467 118.92 123.41 117.547 116.363 116.84C116.017 116.8 115.86 116.607 115.893 116.26C115.973 115.393 117.437 113.64 118.283 113Z" fill="#E19825"/>
<path d="M20.1633 238.24C20.1801 238.32 20.2185 238.394 20.2742 238.454C20.3299 238.514 20.4007 238.557 20.4786 238.579C20.5565 238.601 20.6385 238.6 20.7153 238.577C20.7921 238.555 20.8607 238.511 20.9133 238.45C22.8282 236.331 25.5965 236.856 28.3924 236.376C29.4365 236.196 30.4845 236.016 31.4933 235.75C32.2933 235.543 32.4366 235.763 31.9233 236.41C29.0166 240.057 25.73 243.54 22.0633 246.86C20.5833 248.207 19 249.287 17.3133 250.1C17.0378 250.235 16.7237 250.268 16.4258 250.195C16.128 250.122 14.8652 249.947 14.6833 249.7C11.5603 245.473 13.4604 238.41 14.9687 233.597C15.1266 233.093 15.2802 232.603 15.4233 232.13C15.443 232.069 15.4789 232.013 15.5272 231.971C15.5754 231.928 15.6344 231.899 15.6978 231.886C15.7612 231.874 15.8267 231.879 15.8875 231.901C15.9483 231.923 16.0021 231.96 16.0433 232.01C17.7233 234.023 19.7633 236.1 20.1633 238.24Z" fill="#E19825"/>
<path fill-rule="evenodd" clip-rule="evenodd" d="M258.258 221.82C258.282 221.881 258.309 221.895 258.341 221.864L258.258 221.82ZM256.997 234.55L256.383 240.74C256.681 238.572 256.884 236.532 256.997 234.55ZM257.146 247.132C257.153 247.124 257.159 247.117 257.165 247.11L257.353 248.65C257.419 247.381 257.35 246.875 257.146 247.132ZM64.3933 248.54C64.3953 248.559 65.3733 246.325 65.3352 245.323L64.3918 248.455C64.3895 248.476 64.3894 248.498 64.3914 248.521C64.3913 248.528 64.3914 248.521 64.3933 248.54Z" fill="#E19825"/>
<path d="M230.673 134.51C227.067 131.843 223.227 129.377 219.153 127.11C214.566 124.552 210.88 121.883 206.887 118.99L206.883 118.988C206.569 118.76 206.252 118.531 205.933 118.3C205.673 118.12 205.39 118.023 205.083 118.01C203.417 117.943 201.083 118.07 198.083 118.39C192.877 118.943 187.59 119.303 182.223 119.47C175.717 119.663 161.43 119.65 139.363 119.43C131.883 119.36 123.793 117.63 116.363 116.84C115.975 116.795 115.37 117.923 115.033 118.13L92.1933 132.06C83.2133 138.16 76.2366 142.583 71.2633 145.33C65.87 148.31 60.51 151.383 55.1833 154.55L52.9217 155.804L52.8933 155.82C49.72 157.7 47.09 159.757 45.0033 161.99C44.398 162.64 43.7845 163.28 43.1706 163.921C41.1582 166.022 39.1428 168.126 37.4033 170.57C34.73 174.31 32.0133 177.987 29.2533 181.6C26.1267 185.687 23.24 190.107 22.5933 192.86C21.4733 197.633 20.44 202.053 19.4933 206.12C17.8133 213.36 17.5133 219.2 18.2433 226.19C18.2567 226.323 18.3367 226.38 18.4833 226.36L23.2133 226.23C26.4133 226.33 29.6999 226.52 33.0733 226.8C34.3399 226.9 35.6333 227.127 36.9533 227.48C38.2199 227.82 39.4966 228.157 40.7833 228.49C41.7033 228.73 42.7466 228.43 42.7533 227.97C44.1133 229.17 45.8699 229.977 48.0233 230.39C51.9166 231.13 55.9299 231.63 60.0633 231.89C61.7064 231.181 64.8683 233.056 65.3352 245.323C65.3733 246.325 64.3953 248.559 64.3933 248.54C64.8025 252.315 65.3169 255.368 67 258.32L69 265.82C69.1533 267.227 68.98 269.273 69.5 270.32C71.0842 273.482 72.6339 278.286 74.5943 281.32V293.32L76.5 303.82L78.7634 306.61L79.9333 313.03C79.9414 312.988 79.9606 312.949 79.9891 312.916L79.7931 314.623L79.2832 319.066L79.2633 319.24L80.6133 322.34C80.6666 322.473 80.6633 322.6 80.6033 322.72C80.5566 322.807 80.4733 322.853 80.3533 322.86C80.0866 322.867 79.9966 322.997 80.0833 323.25C81.2433 326.88 80.4933 329.88 78.9733 333.16C77.6433 336.04 77.2033 339.19 78.2933 342.18L79.2433 350.4C78.8966 349.913 78.7166 349.967 78.7033 350.56C78.6871 351.246 78.7046 351.911 78.722 352.57C78.758 353.939 78.7933 355.279 78.5233 356.71C78.0964 358.961 78.225 361.319 78.3496 363.604C78.4936 366.243 78.6322 368.785 77.9033 370.95C76.9033 373.91 76.0733 376.153 75.4133 379.68L75.3916 379.838L74.9033 383.39C74.4879 384.442 74.0404 385.479 73.5943 386.512C72.5478 388.936 71.5092 391.342 70.9133 393.88C70.3933 396.077 70.562 399.43 70.7272 401.737C70.8163 402.979 70.9043 404.207 70.8833 405.39C70.8766 405.834 70.741 406.265 70.4933 406.63C70.1763 407.097 69.8407 407.555 69.5047 408.013C68.4732 409.42 67.4387 410.83 66.9333 412.52C66.2666 414.753 66.0733 417.157 66.3533 419.73C66.4266 420.41 66.7866 420.867 67.4333 421.1C79.4066 425.34 92.7066 427.7 105.333 428.18C117.767 428.647 130.803 429.3 144.443 430.14C162.475 431.242 180.339 430.201 198.239 429.159C205.523 428.735 212.814 428.311 220.123 428.03C232.223 427.563 243.863 425.27 255.043 421.15C255.617 420.943 255.94 420.533 256.013 419.92C256.553 415.16 255.57 411.193 253.063 408.02C252.143 406.85 251.663 404.49 251.863 403.05C252.443 398.76 252.583 394.61 250.653 390.48C249.74 388.527 249.007 386.517 248.453 384.45L247.943 380.85C247.65 378.283 247.053 375.777 246.153 373.33C245.001 370.193 245.111 367.198 245.219 364.232C245.318 361.536 245.416 358.864 244.563 356.13C244.123 354.74 244.193 353.34 244.343 351.88L244.388 350.933L244.883 340.33C245.193 338.247 245.067 336.125 244.223 334.21C243.677 332.957 243.153 331.743 242.653 330.57C242.193 329.49 242.05 328.13 242.223 326.49C242.383 324.97 242.5 323.533 242.573 322.18C242.58 322.1 242.613 322.03 242.673 321.97C242.747 321.903 242.823 321.843 242.903 321.79C243.07 321.67 243.173 321.513 243.213 321.32C243.6 319.467 243.463 317.61 242.803 315.75C243.063 314.797 243.073 314.08 242.833 313.6L246.37 301.478C247.683 298.509 248.251 295.265 247.183 292.25C246.353 289.89 246.973 287.6 247.873 285.33C248 285.023 248.043 284.713 248.003 284.4L251.423 272.18C252.023 270.973 252.393 269.407 252.533 267.48L255.513 255.96C256.613 253.553 257.227 251.117 257.353 248.65L257.165 247.11L256.383 240.74L256.997 234.55L258.258 221.82L258.341 221.864L260.428 222.97L260.493 223.004L260.433 228.55C260.184 229.934 260.433 230.42 260.433 230.42L263.373 231.94C270.713 231.72 277.93 230.527 285.023 228.36L288.373 227.08L300.343 226.18L302.323 226.41C302.797 226.257 303.237 226.227 303.643 226.32C304.343 219.42 304.057 213.753 302.783 209.32C301.463 204.713 300.177 200.093 298.923 195.46C298.137 192.547 296.978 190.216 295.719 187.68L295.718 187.679C295.473 187.186 295.224 186.685 294.973 186.17C293.553 183.255 291.563 180.756 289.586 178.273C288.139 176.456 286.698 174.647 285.493 172.69C281.913 166.89 276.303 162.08 270.803 157.87L269.973 157.506L267.333 156.35C254.92 149.643 242.7 142.363 230.673 134.51Z" fill="#E19825"/>
</svg>
