<svg width="322" height="436" viewBox="0 0 322 436" fill="none" xmlns="http://www.w3.org/2000/svg">
<path d="M181 115.628C187.86 115.601 196.3 114.608 203 114.118C203.524 112.83 202.5 111.1 202.5 111.1C200.54 109.316 198.747 107.813 196.5 106.572C194.7 105.579 191.243 105.398 188.016 105.163C171.15 103.922 154.963 103.674 139.456 104.419C137.931 104.496 136.412 104.653 134.891 104.811C133.232 104.983 131.571 105.156 129.896 105.224C127.263 105.324 124.966 105.905 123.006 106.964C120.246 108.467 118.183 110.577 116.816 113.293C122.903 113.823 127.316 115.104 129.896 115.124C146.936 115.252 163.96 115.681 181 115.628Z" fill="#1C3923"/>
<path d="M17.0164 226.347L21.7464 226.216C24.9464 226.316 28.233 226.508 31.6064 226.789C32.873 226.89 34.1664 227.118 35.4864 227.473C36.753 227.816 38.0297 228.154 39.3164 228.49C40.2364 228.731 40.6997 228.621 40.7064 228.158C40.953 227.661 41.1464 227.598 41.2864 227.967C42.6464 229.174 44.403 229.986 46.5564 230.401C50.4497 231.146 55.463 230.643 59.5964 230.905C62.0297 235.003 63.2597 240.215 63.2864 244.528L64.6064 257.9C64.6785 257.96 63.7262 259.051 63.7409 259.145L65 263.354C66.2267 265.017 65.9697 267.211 64.0164 266.553C61.2864 265.638 57.5164 263.907 54.7264 263.354C45.593 261.542 36.5464 260.224 27.5864 259.399L8.57637 259.148C8.48682 259.141 8.39972 259.116 8.32107 259.072C8.24242 259.028 8.17412 258.968 8.12087 258.896C8.06761 258.823 8.03069 258.739 8.01265 258.651C7.99461 258.562 7.99588 258.471 8.01637 258.383L11.0364 247.486C11.1964 246.802 11.4297 246.775 11.7364 247.406C12.5864 249.156 13.63 251.581 16 250.958C18.7549 250.221 21.1865 248.771 23.4343 246.738L23.4365 246.736C23.7663 246.438 24.0927 246.143 24.4164 245.856L29.0064 240.815L30.7264 238.39C31.7197 237.23 32.503 235.872 33.0764 234.315C33.1964 234 33.0864 233.853 32.7464 233.873C31.5664 233.94 30.4964 235.221 29.5364 235.704L23.2364 236.74C22.8697 236.807 22.573 236.69 22.3464 236.388C20.6797 234.181 18.1697 230.844 16.8164 228.389C16.683 228.154 16.6464 227.91 16.7064 227.655C16.773 227.313 16.9864 227.101 17.3464 227.021L17.0164 226.347Z" fill="#1C3923"/>
<path d="M300.856 226.397L298.876 226.165L286.906 227.071L283.556 228.359C276.463 230.539 269.246 231.74 261.906 231.961C260.26 234.899 258.94 238.286 257.946 242.123C257.726 242.975 257.673 243.837 257.786 244.709L258.396 250.605L258.354 250.789L256.262 259.922C255.866 260.524 255.778 260.855 256 260.913L255.532 265.758V267.056L260 265.547C270.344 262.553 281.465 261.24 292.5 260.013L293.5 259.538C293.821 259.452 296.574 258.81 296.574 258.81C296.5 258.781 296.631 258.865 296.574 258.81C296.648 258.838 296.727 258.85 296.806 258.846L310.826 258.142C311.52 258.108 312.68 258.168 312.5 257.498C310.667 250.776 308.727 243.566 306.5 236.771L303.5 226.397L302.176 226.306C301.77 226.212 301.33 226.243 300.856 226.397Z" fill="#1C3923"/>
</svg>
