<svg width="322" height="436" viewBox="0 0 322 436" fill="none" xmlns="http://www.w3.org/2000/svg">
<path d="M8.04681 267.321C7.26681 268.654 7.21014 269.937 7.87681 271.171L8.85681 282.991C8.89014 283.391 9.02014 283.427 9.24681 283.101C9.42681 282.847 9.56348 282.514 9.65681 282.101C9.91681 281.981 10.1601 281.927 10.3868 281.941C10.7801 281.954 10.9735 282.161 10.9668 282.561L10.9568 283.321C9.10347 288.501 7.78347 293.857 6.99681 299.391L7.05681 305.901L7.66681 310.421C7.68008 310.522 7.66828 310.626 7.63246 310.722C7.59665 310.818 7.53794 310.904 7.46161 310.971C7.38528 311.038 7.29371 311.086 7.19513 311.108C7.09655 311.131 6.99404 311.128 6.89681 311.101C6.81681 311.081 6.73014 311.051 6.63681 311.011C3.68681 304.721 4.64681 297.311 6.30681 290.841C6.46014 290.227 6.35347 290.177 5.98681 290.691C-0.779229 300.097 2.54709 313.311 5.1991 323.845C5.27905 324.163 5.35838 324.478 5.43681 324.791C6.95681 330.671 9.19347 336.204 12.1468 341.391C12.1801 341.444 12.2201 341.461 12.2668 341.441C12.3001 341.427 12.3301 341.407 12.3568 341.381C12.4768 341.254 12.5135 341.114 12.4668 340.961C11.9068 339.074 11.4835 337.054 11.1968 334.901C11.1701 334.741 11.2368 334.641 11.3968 334.601L11.6468 334.531C11.8535 334.477 11.9901 334.554 12.0568 334.761L17.3068 351.261C22.6668 360.167 29.3668 367.914 37.4068 374.501C42.3001 378.507 45.4101 381.111 46.7368 382.311C49.7568 385.024 52.8068 387.704 55.8868 390.351C56.6801 391.031 57.4168 391.767 58.0968 392.561C58.8435 393.434 59.5301 394.231 60.1568 394.951C61.1101 396.057 62.0301 397.081 62.9168 398.021C63.7258 398.887 64.2982 399.831 64.8654 400.766C65.3919 401.635 65.914 402.496 66.6168 403.281C67.2301 403.967 67.5535 403.851 67.5868 402.931L67.8768 394.481C68.1235 393.787 68.3635 393.034 68.5968 392.221C68.9768 390.912 69.6188 389.665 70.2573 388.424C70.6772 387.609 71.0956 386.796 71.4368 385.971C71.7425 385.239 71.6363 384.608 71.5285 383.967C71.4213 383.33 71.3125 382.684 71.6068 381.921C73.1135 378.014 74.5601 374.127 75.9468 370.261C76.993 367.341 74.8101 363.897 73.2433 361.424L73.1617 361.296L73.1113 361.216L73.0068 361.051C72.5535 360.331 72.3701 360.394 72.4568 361.241C72.5568 362.261 72.7701 363.261 73.0968 364.241C73.1107 364.285 73.1158 364.331 73.1118 364.377C73.1078 364.423 73.0947 364.468 73.0733 364.508C73.052 364.549 73.0227 364.586 72.9873 364.615C72.9518 364.645 72.9109 364.667 72.8668 364.681L72.5368 364.771C72.4958 364.78 72.4526 364.775 72.4156 364.754C72.3786 364.734 72.3506 364.7 72.3368 364.661C71.3701 361.047 70.0001 357.824 68.2268 354.991C68.1677 354.898 68.0896 354.818 67.9977 354.758C67.9059 354.698 67.8024 354.658 67.6944 354.641C67.5864 354.623 67.4762 354.63 67.3714 354.659C67.2666 354.688 67.1695 354.74 67.0868 354.811L64.6768 356.841C64.5968 356.907 64.5201 356.907 64.4468 356.841L64.2368 356.651C64.2297 356.646 64.2238 356.639 64.2194 356.632C64.215 356.625 64.2123 356.616 64.2113 356.608C64.2104 356.599 64.2113 356.591 64.2139 356.583C64.2166 356.574 64.221 356.567 64.2268 356.561C66.2201 354.421 67.2101 352.521 67.1968 350.861C67.1635 346.727 66.3368 342.044 64.7168 336.811C63.5768 333.111 60.8468 328.624 56.5268 323.351L48.1368 310.721C47.8168 309.887 47.4735 309.261 47.1068 308.841C46.4335 308.074 46.5935 307.807 47.5868 308.041C48.4801 308.254 49.1668 308.834 49.6468 309.781C50.3668 311.181 51.1868 312.507 52.1068 313.761C52.4668 314.254 52.6335 314.197 52.6068 313.591L52.1268 302.541C52.1237 302.474 52.102 302.409 52.0641 302.354C52.0262 302.298 51.9737 302.255 51.9124 302.228C51.8511 302.201 51.7834 302.191 51.7171 302.201C51.6507 302.21 51.5883 302.238 51.5368 302.281C50.7035 302.987 50.1635 303.361 49.9168 303.401C48.5968 303.614 48.4601 303.304 49.5068 302.471C56.1668 297.201 61.6368 290.511 63.5868 282.041C64.4468 278.307 65.2635 274.347 66.0368 270.161C66.0949 269.852 66.0426 269.532 65.8891 269.258C65.7355 268.984 65.4905 268.772 65.1968 268.661L56.6868 265.441C41.3135 262.374 25.8068 260.451 10.1668 259.671C9.82014 259.651 9.61014 259.811 9.53681 260.151L8.04681 267.321Z" fill="#E0AB74"/>
<path d="M127.327 83.8406L129.407 96.2706C129.487 96.7639 129.66 96.8006 129.927 96.3806C130.64 95.2473 131.013 93.964 131.047 92.5306C131.053 92.4906 131.077 92.4706 131.117 92.4706L131.437 92.5006C131.69 92.5206 131.793 92.6573 131.747 92.9106L129.897 103.791C129.843 104.111 129.977 104.251 130.297 104.211C136.85 103.391 145.007 102.971 154.767 102.951C166.727 102.917 177.217 103.214 186.237 103.841C187.777 103.947 189.273 104.177 190.727 104.531C190.803 104.55 190.884 104.549 190.96 104.53C191.037 104.51 191.107 104.471 191.166 104.416C191.224 104.362 191.268 104.294 191.295 104.218C191.321 104.142 191.329 104.06 191.317 103.981L190.277 97.0906C190.557 94.4239 190.293 92.1606 189.487 90.3006L188.987 86.0306C188.927 85.5173 188.83 85.5073 188.697 86.0006L187.597 89.9906L185.187 94.1906C184.987 94.5373 184.69 94.7406 184.297 94.8006L180.597 95.3306C180.21 95.384 179.877 95.2806 179.597 95.0206L177.927 93.4806C177.48 93.0673 177.227 93.1639 177.167 93.7706C177 95.6039 176.263 96.5173 174.957 96.5106C174.774 96.5105 174.595 96.4624 174.437 96.3711C174.279 96.2798 174.148 96.1486 174.057 95.9906L172.597 93.4506C172.558 93.3829 172.502 93.3272 172.433 93.2898C172.365 93.2525 172.287 93.2349 172.209 93.239C172.132 93.2432 172.056 93.2689 171.992 93.3133C171.928 93.3578 171.878 93.4192 171.847 93.4906L170.667 96.0806C170.625 96.1734 170.564 96.2563 170.487 96.324C170.411 96.3917 170.322 96.4427 170.225 96.4738C170.128 96.5049 170.025 96.5154 169.924 96.5045C169.823 96.4936 169.725 96.4616 169.637 96.4106L168.907 95.9906C168.56 95.7973 168.237 95.8273 167.937 96.0806L165.227 98.3406C164.52 98.0406 164.45 97.0373 165.017 95.3306C165.203 94.7506 165.087 94.6839 164.667 95.1306C162.853 97.0439 161.1 97.9406 159.407 97.8206C159.127 97.8006 159.003 97.6506 159.037 97.3706C159.137 96.6173 158.95 95.9006 158.477 95.2206C158.21 94.834 158 94.8606 157.847 95.3006L157.077 97.4406C156.95 97.8006 156.7 98.0173 156.327 98.0906C155.76 98.2106 155.173 98.0973 154.567 97.7506C152.367 95.404 150.507 93.0006 148.987 90.5406C148.217 89.3006 147.317 88.5806 145.887 88.5606C145.66 88.554 145.543 88.664 145.537 88.8906C145.523 89.144 145.393 89.2706 145.147 89.2706C142.118 89.2614 140.471 87.4619 138.662 85.4857L138.661 85.4847L138.656 85.4798L138.631 85.4522L138.435 85.2379C138.359 85.1556 138.283 85.0731 138.207 84.9906C137.693 84.4306 137.483 84.5273 137.577 85.2806C137.643 85.8006 137.853 86.2773 138.207 86.7106C139 87.6906 138.777 88.084 137.537 87.8906C134.447 87.4206 132.427 84.9906 130.587 82.7106C130.392 82.471 130.199 82.275 130.015 82.0897C129.548 81.6175 129.149 81.2138 128.977 80.3306C128.763 79.2906 128.19 78.684 127.257 78.5106C126.95 78.4506 126.693 78.3006 126.487 78.0606C124.776 76.0179 123.626 72.996 122.643 70.4115L122.642 70.4087C122.528 70.1094 122.417 69.816 122.307 69.5306C122.093 68.984 121.903 68.9906 121.737 69.5506C120.775 72.845 122.045 76.0814 123.258 79.1734C123.47 79.7137 123.68 80.2496 123.877 80.7806C123.909 80.8636 123.915 80.9544 123.894 81.0409C123.873 81.1274 123.827 81.2055 123.761 81.2651C123.695 81.3246 123.612 81.3628 123.524 81.3745C123.436 81.3862 123.346 81.3709 123.267 81.3306C117.977 78.7106 119.187 69.1006 121.017 64.2906C121.45 63.1506 121.31 62.154 120.597 61.3006C120.297 60.9406 119.963 60.904 119.597 61.1906C118.497 62.0573 117.783 63.1873 117.457 64.5806C115.97 70.9806 117.273 76.9506 121.367 82.4906C122.38 83.864 123.58 84.1973 124.967 83.4906C125.307 83.3106 125.513 83.0339 125.587 82.6606L125.957 80.8506C126.063 80.3306 126.197 80.324 126.357 80.8306L127.327 83.8406Z" fill="#E0AB74"/>
<path d="M196.397 80.2106C195.87 80.9573 195.623 81.7906 195.657 82.7106C195.717 84.2706 196.293 84.4973 197.387 83.3906C202.373 78.3573 204.26 71.7839 203.047 63.6706C202.953 63.0706 202.607 62.7339 202.007 62.6606L201.667 62.6106C201.597 62.6019 201.526 62.6087 201.459 62.6306C201.391 62.6524 201.33 62.6888 201.277 62.7372C201.225 62.7856 201.184 62.8449 201.156 62.9111C201.128 62.9773 201.115 63.0487 201.117 63.1206C201.343 69.7273 199.77 75.424 196.397 80.2106Z" fill="#E0AB74"/>
<path d="M264.947 265.801C261.787 266.367 258.773 267.411 255.907 268.931C255.36 269.217 255.163 269.661 255.317 270.261C256.663 275.494 257.977 280.247 259.257 284.521C261.01 290.407 264.553 295.624 269.887 300.171C270.133 300.384 270.337 300.634 270.497 300.921L271.627 302.961L272.547 304.651C271.773 304.804 271.047 304.434 270.367 303.541C269.927 302.961 269.717 303.034 269.737 303.761C269.83 308.007 269.507 312.207 268.767 316.361C268.687 316.801 268.833 316.894 269.207 316.641C269.393 316.514 269.533 316.347 269.627 316.141C270.4 314.334 271.75 313.017 273.677 312.191L265.697 324.191C264.917 324.717 264.33 325.277 263.937 325.871C259.787 332.221 255.507 338.801 254.977 346.641C254.937 347.215 254.909 347.772 254.882 348.317C254.769 350.623 254.666 352.728 253.647 355.081C252.307 358.207 251.127 361.741 250.107 365.681C250.1 365.707 250.083 365.721 250.057 365.721C249.97 365.721 249.883 365.717 249.797 365.711C249.57 365.704 249.453 365.584 249.447 365.351C249.42 364.231 249.647 363.114 250.127 362.001C250.127 361.994 250.123 361.991 250.117 361.991L249.887 361.881C249.773 361.834 249.687 361.864 249.627 361.971C248.713 363.677 247.883 365.394 247.137 367.121C246.662 368.223 246.637 369.465 247.067 370.581C248.46 374.227 249.827 377.911 251.167 381.631C251.479 382.489 251.408 383.256 251.335 384.043C251.26 384.843 251.184 385.663 251.507 386.621C252.413 389.307 253.347 391.931 254.307 394.491L254.417 402.761C254.43 403.401 254.657 403.487 255.097 403.021L262.767 394.871C270.76 386.857 277.133 381.101 281.887 377.601C285.273 375.101 288.453 372.354 291.427 369.361C296.947 363.794 301.64 357.777 305.507 351.311L310.907 332.821C311.127 332.067 311.25 332.084 311.277 332.871C311.37 335.424 311.093 338.167 310.447 341.101C310.443 341.121 310.445 341.139 310.452 341.154L310.454 341.157C310.455 341.159 310.456 341.161 310.457 341.163C310.46 341.167 310.462 341.17 310.465 341.173C310.471 341.18 310.478 341.186 310.487 341.191C310.52 341.204 310.557 341.211 310.597 341.211C310.71 341.211 310.793 341.161 310.847 341.061C312.9 336.967 314.123 334.274 314.517 332.981C315.803 328.701 317.08 322.421 318.347 314.141C320.327 306.467 319.907 299.527 317.087 293.321C315.253 289.274 314.877 289.404 315.957 293.711C316.31 295.097 316.663 297.634 317.017 301.321C317.39 305.147 316.54 309.324 314.467 313.851C313.14 314.664 311.93 315.594 310.837 316.641C310.477 316.987 310.117 317.151 309.757 317.131C309.423 317.111 309.297 316.937 309.377 316.611L309.777 314.991C309.857 314.664 310.04 314.417 310.327 314.251C311.169 313.767 311.533 313.097 311.903 312.417C312.152 311.958 312.404 311.495 312.807 311.081C313.193 310.687 313.49 310.244 313.697 309.751C314.95 306.677 315.437 303.467 315.157 300.121C314.877 297.961 314.527 296.044 314.107 294.371C312.56 288.164 310.827 282.017 308.907 275.931C308.902 275.913 308.905 275.9 308.915 275.891C308.918 275.888 308.922 275.886 308.927 275.884C308.93 275.883 308.933 275.882 308.937 275.881L309.197 275.781C309.377 275.721 309.503 275.774 309.577 275.941L312.607 282.831C312.88 283.451 313.043 283.424 313.097 282.751L314.237 268.861C314.397 268.161 314.237 267.384 313.757 266.531L312.507 260.291C312.433 259.937 312.217 259.771 311.857 259.791L297.387 260.671C296.94 260.697 296.63 260.921 296.457 261.341C296.097 262.221 295.517 263.071 294.717 263.891C293.477 265.157 293.207 264.977 293.907 263.351L294.557 261.821C294.757 261.361 294.607 261.151 294.107 261.191C284.38 262.044 274.66 263.581 264.947 265.801Z" fill="#E0AB74"/>
</svg>
